<?xml version="1.0" encoding="UTF-8"?>
<svg xmlns:xlink="http://www.w3.org/1999/xlink" width="158px" height="41px" viewBox="0 0 158 41" version="1.1"
     xmlns="http://www.w3.org/2000/svg">
    <!-- Generator: Sketch 48.1 (47250) - http://www.bohemiancoding.com/sketch -->
    <title>Group 2</title>
    <desc>Created with Sketch.</desc>
    <defs>
        <path d="M10.132489,19.9342801 C10.132489,21.3519732 8.94463527,22.5012404 7.47934348,22.5012404 C6.01405168,22.5012404 4.82619799,21.3519732 4.82619799,19.9342801 C4.82619799,18.5165871 6.01405168,17.3673199 7.47934348,17.3673199 C8.18610014,17.3686087 8.86323034,17.6421565 9.36108347,18.1275073 C9.85893661,18.612858 10.1365212,19.2700496 10.132489,19.9538379 L10.132489,19.9342801 Z M9.12176687,19.9342801 C9.12176687,19.0566607 8.38642887,18.3452095 7.47934348,18.3452095 C6.57225808,18.3452095 5.83692008,19.0566607 5.83692008,19.9342801 C5.83692008,20.8118996 6.57225808,21.5233508 7.47934348,21.5233508 C8.37859292,21.5234167 9.11069919,20.8238101 9.12176687,19.9538379 L9.12176687,19.9342801 Z M18.1525688,0.488944816 L18.1525688,34.468502 C18.1525688,34.7385388 17.9263109,34.9574468 17.6472077,34.9574468 C17.3681045,34.9574468 17.1418467,34.7385388 17.1418467,34.468502 L17.1418467,30.2705735 L12.0478073,30.2705735 L12.0478073,32.9402122 C12.0478073,34.0203593 11.1427759,34.8959915 10.0263631,34.8959915 L4.97275269,34.8959915 C3.85633989,34.8959915 2.95130851,34.0203593 2.95130851,32.9402122 L2.95130851,30.2510158 L0.505361046,30.2510158 C0.226257847,30.2510158 0,30.0321077 0,29.7620709 L0,24.569477 C0,24.2994402 0.226257847,24.0805322 0.505361046,24.0805322 L2.10735556,24.0805322 L2.10735556,18.2131944 C2.10614954,15.8005023 4.01432584,13.7886005 6.49894305,13.582887 L7.03967937,11.2066152 L5.83692008,11.2066152 C5.55781688,11.2066152 5.33155903,10.9877071 5.33155903,10.7176704 C5.33155903,10.4476336 5.55781688,10.2287255 5.83692008,10.2287255 L7.26709184,10.2287255 L7.94427564,7.29505665 C8.40243008,5.14479843 10.3597876,3.60240397 12.6289725,3.60352329 L17.1418467,3.60352329 L17.1418467,0.488944816 C17.1418467,0.218908051 17.3681045,0 17.6472077,0 C17.9263109,0 18.1525688,0.218908051 18.1525688,0.488944816 Z M11.0370852,30.2705735 L3.9620306,30.2705735 L3.9620306,32.9402122 C3.9620306,33.4802858 4.41454629,33.9181019 4.97275269,33.9181019 L10.0263631,33.9181019 C10.5845695,33.9181019 11.0370852,33.4802858 11.0370852,32.9402122 L11.0370852,30.2510158 L11.0370852,30.2705735 Z M17.1418467,25.0584218 L1.01072209,25.0584218 L1.01072209,29.2975734 L17.1418467,29.2975734 L17.1418467,25.0584218 Z M13.5739977,7.86223264 C12.6228571,7.86192075 11.8001533,8.50318251 11.598036,9.40240881 L10.6580645,13.5584397 L17.1418467,13.5584397 L17.1418467,7.86223252 L13.5739977,7.86223264 Z M12.6289725,4.60586016 C10.8496961,4.60098109 9.30844555,5.79881765 8.92972968,7.48085568 L7.41364654,14.1549524 C7.36070787,14.3823864 7.14917083,14.5420254 6.90828549,14.5363294 C4.8150115,14.5363294 3.11807765,16.1781398 3.11807765,18.2034155 L3.11807765,24.0707533 L17.1418467,24.0707533 L17.1418467,14.5314399 L10.0263631,14.5314399 C9.87174062,14.5347847 9.72404815,14.4694418 9.62552186,14.3540976 C9.52699557,14.2387535 9.48848461,14.0861091 9.5210021,13.9398167 L10.5974211,9.18727309 C10.9103514,7.84363505 12.1403398,6.88674286 13.5638905,6.87945356 L17.1317394,6.87945356 L17.1317394,4.58141292 L12.6289725,4.60586016 Z"
              id="path-1"></path>
        <filter x="-26.7%" y="-13.9%" width="153.4%" height="127.7%" filterUnits="objectBoundingBox" id="filter-2">
            <feMorphology radius="0.35" operator="dilate" in="SourceAlpha" result="shadowSpreadOuter1"></feMorphology>
            <feOffset dx="0" dy="0" in="shadowSpreadOuter1" result="shadowOffsetOuter1"></feOffset>
            <feGaussianBlur stdDeviation="1.5" in="shadowOffsetOuter1" result="shadowBlurOuter1"></feGaussianBlur>
            <feComposite in="shadowBlurOuter1" in2="SourceAlpha" operator="out" result="shadowBlurOuter1"></feComposite>
            <feColorMatrix values="0 0 0 0 0   0 0 0 0 0   0 0 0 0 0  0 0 0 0.0782099185 0" type="matrix"
                           in="shadowBlurOuter1"></feColorMatrix>
        </filter>
    </defs>
    <g id="Fleetx-logo" stroke="none" stroke-width="1" fill="none" fill-rule="evenodd"
       transform="translate(-43.000000, -108.000000)">
        <g id="Group-2" transform="translate(46.000000, 111.000000)">
            <g id="Group-9">
                <g id="logo">
                    <g id="Logo-on-white-Copy">
                        <g id="Group-4">
                            <g id="Shape-Copy" fill-rule="nonzero">
                                <use fill="black" fill-opacity="1" filter="url(#filter-2)" xlink:href="#path-1"></use>
                                <use stroke="#203254" stroke-width="0.7" fill="#203254" fill-rule="evenodd"
                                     xlink:href="#path-1"></use>
                            </g>
                            <path d="M26.018141,5.63829787 L26.018141,5.63829787 C26.6862358,5.63829787 27.2278406,6.17988247 27.2278656,6.84797725 L27.2288503,33.2032749 C27.2288752,33.8713374 26.6873238,34.4129293 26.0192613,34.4129542 C26.0192462,34.4129542 26.0192312,34.4129542 26.0192161,34.4129542 L26.0192161,34.4129542 C25.3511213,34.4129542 24.8095165,33.8713696 24.8094915,33.2032749 L24.8085068,6.84797725 C24.8084818,6.17991474 25.3500333,5.63832283 26.0180958,5.63829787 C26.0181108,5.63829787 26.0181259,5.63829787 26.018141,5.63829787 Z"
                                  id="Rectangle" stroke="#1FD8AA" stroke-width="0.5" fill="#1FD8AA"></path>
                            <path d="M34.2882497,13.5318819 L34.2882497,13.5318819 C34.9565518,13.5318636 35.4983324,14.0736147 35.4983507,14.7419168 C35.4983507,14.7419302 35.4983507,14.7419436 35.4983507,14.741957 L35.4982371,33.8639893 C35.4982332,34.5323169 34.9564456,35.0741012 34.288118,35.0741012 L34.288118,35.0741012 C33.6197959,35.0741012 33.0780137,34.5323191 33.0780137,33.8639969 C33.0780137,33.8639944 33.0780137,33.8639919 33.0780137,33.8639893 L33.078134,14.742023 C33.0781382,14.0736922 33.6199189,13.5319001 34.2882497,13.5318819 Z"
                                  id="Rectangle-Copy" stroke="#0EC0D6" stroke-width="0.5" fill="#0EC0D6"></path>
                            <path d="M50.8268288,14.6595745 L50.8268288,14.6595745 C51.4950207,14.6595745 52.036704,15.2012384 52.0367277,15.8694304 L52.0373643,33.7863705 C52.037388,34.4545317 51.4957556,34.9962027 50.8275944,34.9962264 C50.82758,34.9962264 50.8275657,34.9962264 50.8275514,34.9962264 L50.8275514,34.9962264 C50.1593595,34.9962264 49.6176762,34.4545624 49.6176525,33.7863705 L49.6170159,15.8694304 C49.6169922,15.2012691 50.1586246,14.6595982 50.8267858,14.6595745 C50.8268002,14.6595745 50.8268145,14.6595745 50.8268288,14.6595745 Z"
                                  id="Rectangle-Copy-3" stroke="#0DB8FF" stroke-width="0.5" fill="#0DB8FF"></path>
                            <path d="M42.5576928,19.1702128 L42.5576928,19.1702128 C43.2260539,19.1702128 43.7678677,19.7120265 43.7678677,20.3803877 L43.7678677,33.4751835 C43.7678677,34.1435155 43.2260775,34.6853057 42.5577454,34.6853057 C42.5577278,34.6853057 42.5577103,34.6853057 42.5576928,34.6853057 L42.5576928,34.6853057 C41.8893231,34.6852767 41.3475179,34.1434479 41.3475179,33.4750782 L41.3475179,20.3803877 C41.3475179,19.7120265 41.8893316,19.1702128 42.5576928,19.1702128 Z"
                                  id="Rectangle-Copy-2" stroke="#24B1A4" stroke-width="0.5" fill="#24B1A4"></path>
                        </g>
                    </g>
                </g>
                <path d="M63.4832494,15.5246896 L63.4832494,13.2063592 C63.4832494,9.5326971 66.1793487,6.9647003 70.0106478,7.00036692 C71.2522725,7.03603354 72.6003221,7.32136652 73.5226719,7.82069923 L73.4162469,11.3873615 C72.6357971,10.7810289 71.6779724,10.4600293 70.7910976,10.4600293 C68.910923,10.4243627 67.5273984,11.8153609 67.5273984,13.8126918 L67.5273984,15.5246896 L72.4938972,15.5246896 L72.4584222,18.5563525 L67.5273984,18.5563525 L67.5273984,33.8216669 L63.4832494,33.8216669 L63.4832494,18.5563525 L61,18.5563525 L61.035475,15.5246896 L63.4832494,15.5246896 Z M79.5888954,7.35703314 L79.5888954,33.8216669 L75.5092714,33.8216669 L75.5092714,7.35703314 L79.5888954,7.35703314 Z M92.8188854,14.7043573 C99.4527088,14.7043573 102.148808,19.0556853 101.652158,25.9036767 L87.3912118,25.9036767 C88.0297616,28.8283398 90.2646861,30.6473375 93.2445853,30.6473375 C95.3021348,30.6473375 97.1823094,29.8626718 98.565834,28.4360069 L100.729808,30.7543374 C98.8851089,32.7873348 96.1890096,33.9643334 92.9253104,33.9643334 C87.1074119,33.9643334 83.2761128,30.0766715 83.2761128,24.370012 C83.2761128,18.6276858 87.2138368,14.740024 92.8188854,14.7043573 Z M87.3202618,22.9076805 L98.1046591,22.9076805 C97.9627592,19.8403509 95.9406847,17.9856866 92.8543604,17.9856866 C89.8744612,17.9856866 87.7814367,19.8760176 87.3202618,22.9076805 Z M112.931024,14.7043573 C119.564847,14.7043573 122.260946,19.0556853 121.764297,25.9036767 L107.50335,25.9036767 C108.1419,28.8283398 110.376824,30.6473375 113.356724,30.6473375 C115.414273,30.6473375 117.294448,29.8626718 118.677972,28.4360069 L120.841947,30.7543374 C118.997247,32.7873348 116.301148,33.9643334 113.037449,33.9643334 C107.21955,33.9643334 103.388251,30.0766715 103.388251,24.370012 C103.388251,18.6276858 107.325975,14.740024 112.931024,14.7043573 Z M107.4324,22.9076805 L118.216797,22.9076805 C118.074898,19.8403509 116.052823,17.9856866 112.966499,17.9856866 C109.9866,17.9856866 107.893575,19.8760176 107.4324,22.9076805 Z M134.923337,29.470339 L135.952111,32.6090017 C134.462162,33.5006673 132.901262,34 131.304888,34 C128.466888,34 126.019114,32.3593354 126.019114,28.4716735 L126.019114,18.6276858 L123.35849,18.6276858 L123.35849,15.5603563 L126.019114,15.5603563 L126.019114,10.3530294 L130.063263,10.3530294 L130.063263,15.5603563 L135.632836,15.5603563 L135.632836,18.6276858 L130.063263,18.6276858 L130.063263,27.7226745 C130.063263,29.6843387 130.808238,30.2906713 132.085337,30.2906713 C132.936737,30.2906713 133.823612,30.0053383 134.923337,29.470339 Z M145.811977,21.3383491 L150.104451,14.8470238 L154.5743,14.8470238 L148.508077,24.084679 L155,33.8216669 L150.317301,33.8216669 L145.811977,26.8666755 L140.987378,33.8216669 L136.44658,33.8216669 L143.115878,24.084679 L136.907754,14.8470238 L141.590453,14.8470238 L145.811977,21.3383491 Z"
                      id="fleetx" fill="#203254"></path>
            </g>
        </g>
    </g>
</svg>